<?xml version="1.0" standalone="no"?>
<!DOCTYPE svg PUBLIC "-//W3C//DTD SVG 20010904//EN"
 "http://www.w3.org/TR/2001/REC-SVG-20010904/DTD/svg10.dtd">
<svg version="1.0" xmlns="http://www.w3.org/2000/svg"
 width="500.000000pt" height="500.000000pt" viewBox="0 0 500.000000 500.000000"
 preserveAspectRatio="xMidYMid meet">
<metadata>
Created by potrace 1.14, written by Peter Selinger 2001-2017
</metadata>
<g transform="translate(0.000000,500.000000) scale(0.100000,-0.100000)"
fill="#000000" stroke="none">
<path d="M2325 4309 c-174 -20 -375 -87 -530 -176 -414 -238 -671 -649 -710
-1134 -11 -135 -23 -128 218 -131 l202 -3 12 -82 c32 -229 122 -406 292 -573
145 -143 299 -225 501 -266 77 -15 217 -16 384 -1 l29 2 52 -181 c29 -100 55
-187 60 -194 12 -20 82 -5 191 39 495 203 841 688 870 1216 3 61 1 106 -5 115
-8 12 -48 16 -213 20 l-203 5 -2 35 c-10 131 -65 296 -143 425 -149 246 -417
422 -697 457 l-93 12 0 197 c0 166 -2 200 -16 213 -17 18 -79 19 -199 5z m123
-246 l-3 -167 -90 -13 c-111 -16 -181 -36 -268 -75 -37 -17 -69 -29 -72 -27
-16 17 -134 294 -127 301 16 16 199 85 283 107 79 20 180 36 252 40 l27 1 -2
-167z m-579 -182 c34 -74 61 -140 61 -146 0 -7 -23 -31 -51 -55 l-51 -43 -116
116 -116 116 29 32 c42 44 167 131 176 122 4 -5 34 -68 68 -142z m-220 -195
l113 -114 -43 -53 c-25 -30 -57 -75 -72 -101 l-27 -47 -68 20 c-37 10 -103 28
-148 40 -117 30 -115 27 -75 101 59 109 178 268 201 268 3 0 56 -51 119 -114z
m801 -51 c0 -152 -1 -165 -18 -165 -35 0 -138 -31 -186 -55 -27 -14 -50 -24
-52 -22 -6 6 -134 289 -134 297 0 7 70 40 145 69 46 18 155 39 203 40 l42 1 0
-165z m228 149 c154 -31 302 -109 424 -223 157 -147 250 -333 282 -563 l5 -38
-168 0 -167 0 -12 63 c-40 214 -242 410 -458 443 l-44 6 0 164 0 164 30 0 c17
0 66 -7 108 -16z m-624 -303 l66 -144 -38 -41 c-20 -23 -41 -41 -47 -40 -15 2
-309 85 -318 91 -8 5 38 76 97 147 51 62 156 150 166 139 4 -4 37 -73 74 -152z
m-621 -151 c76 -21 141 -41 143 -43 2 -2 -7 -37 -21 -77 -14 -41 -30 -114 -37
-162 l-12 -88 -169 0 -168 0 6 58 c9 79 23 155 45 237 29 109 38 128 57 121 9
-4 79 -24 156 -46z m1017 -69 l0 -118 -44 -17 c-53 -20 -121 -90 -131 -135
l-7 -31 -124 0 c-68 0 -124 4 -124 8 0 5 7 33 16 63 48 160 152 272 303 325
114 41 111 44 111 -95z m245 74 c95 -45 173 -123 221 -219 32 -67 37 -87 42
-169 8 -155 -25 -249 -123 -355 -63 -68 -162 -125 -242 -140 l-53 -9 0 118 0
119 38 15 c192 81 193 355 0 432 l-38 15 0 120 0 120 43 -7 c23 -4 74 -22 112
-40z m-860 -117 c83 -23 152 -43 154 -44 2 -2 -5 -25 -17 -51 -11 -26 -25 -74
-32 -105 l-11 -58 -165 0 -164 0 0 23 c0 71 55 277 74 277 6 0 79 -19 161 -42z
m725 -183 c45 -23 70 -66 70 -120 0 -58 -20 -97 -63 -124 -120 -74 -266 63
-199 187 35 66 124 92 192 57z m-625 -207 c4 -24 18 -71 30 -106 12 -34 20
-64 16 -66 -4 -3 -76 -21 -160 -42 -129 -32 -154 -35 -162 -23 -26 40 -66 235
-55 265 4 11 35 14 165 14 l159 0 7 -42z m339 4 c18 -52 64 -101 122 -130 l54
-26 0 -111 c0 -62 -2 -114 -5 -117 -11 -11 -102 13 -164 43 -83 41 -170 128
-209 211 -32 66 -55 146 -46 160 3 5 58 7 121 6 l116 -3 11 -33z m1108 -12
c-6 -80 -42 -203 -87 -297 -98 -202 -265 -358 -475 -442 -75 -29 -206 -61
-255 -61 l-25 0 2 167 3 168 53 7 c108 16 236 89 316 180 56 64 110 171 126
253 7 33 14 63 17 68 2 4 77 6 166 5 l162 -3 -3 -45z m421 -15 c-4 -92 -23
-191 -54 -287 -28 -87 -98 -248 -107 -248 -3 0 -259 151 -281 166 -1 2 8 27
21 56 45 97 88 246 88 305 0 15 3 38 6 51 6 22 7 22 168 20 l161 -3 -2 -60z
m-1714 -492 c-29 -87 -54 -160 -55 -162 -7 -8 -112 69 -168 125 -59 59 -156
188 -156 208 0 6 73 29 163 52 l162 41 53 -54 53 -53 -52 -157z m263 57 c111
-22 98 2 98 -185 l0 -165 -32 0 c-44 0 -190 35 -255 61 l-51 21 49 146 c27 81
51 153 54 160 3 10 14 8 44 -8 22 -11 64 -25 93 -30z m1128 -110 c58 -35 107
-65 109 -67 15 -11 -139 -195 -221 -265 l-54 -46 -97 129 c-53 71 -97 133 -97
138 0 6 15 22 34 36 19 14 62 60 96 101 l62 75 31 -19 c18 -11 79 -48 137 -82z
m-341 -295 c51 -69 90 -132 88 -139 -10 -25 -283 -166 -320 -166 -10 0 -101
309 -94 317 3 3 39 20 79 37 40 18 89 42 108 54 19 12 37 22 40 22 3 0 48 -56
99 -125z"/>
<path d="M1670 1346 l0 -43 -50 5 c-44 4 -52 2 -80 -26 -25 -25 -30 -38 -30
-77 0 -38 5 -52 29 -75 27 -27 33 -29 115 -29 l86 1 0 144 0 144 -35 0 c-35 0
-35 0 -35 -44z m-12 -108 c7 -7 12 -21 12 -33 0 -12 -5 -26 -12 -33 -7 -7 -21
-12 -33 -12 -12 0 -26 5 -33 12 -7 7 -12 21 -12 33 0 12 5 26 12 33 7 7 21 12
33 12 12 0 26 -5 33 -12z"/>
<path d="M2000 1245 l0 -145 35 0 35 0 0 145 0 145 -35 0 -35 0 0 -145z"/>
<path d="M3827 1384 c-4 -4 -7 -70 -7 -146 l0 -138 39 0 c37 0 40 2 43 32 4
43 18 44 48 3 22 -30 31 -34 68 -35 48 0 48 1 -5 67 -18 23 -33 45 -33 50 0 5
16 24 35 43 19 19 35 38 35 42 0 4 -17 8 -38 8 -31 0 -45 -7 -73 -36 l-34 -35
-5 73 c-5 73 -5 73 -35 76 -17 2 -34 0 -38 -4z"/>
<path d="M630 1370 c-19 -5 -49 -24 -67 -44 -29 -31 -33 -42 -33 -92 0 -52 3
-59 39 -95 25 -26 49 -40 67 -40 54 -3 99 3 127 17 24 13 27 20 27 69 l0 55
-34 0 c-33 0 -35 -2 -38 -37 -3 -34 -6 -38 -34 -41 -67 -7 -105 77 -59 128 22
24 86 28 105 5 12 -14 16 -13 37 6 30 29 29 35 -5 53 -38 20 -90 26 -132 16z"/>
<path d="M2880 1235 l0 -135 95 0 c126 0 165 19 165 81 0 10 -9 28 -19 38 -18
18 -19 23 -6 48 35 70 -12 103 -145 103 l-90 0 0 -135z m163 66 c17 -17 -12
-41 -49 -41 -31 0 -34 2 -34 31 0 31 1 31 37 26 20 -4 41 -11 46 -16z m12
-116 c0 -17 -8 -20 -47 -23 -46 -3 -48 -2 -48 23 0 25 2 26 48 23 39 -3 47 -6
47 -23z"/>
<path d="M4347 1353 c-4 -3 -7 -17 -7 -30 0 -14 -6 -23 -15 -23 -9 0 -15 -9
-15 -25 0 -14 6 -25 14 -25 9 0 15 -18 19 -56 7 -72 27 -94 83 -94 24 0 45 3
47 8 9 15 -11 47 -29 47 -16 0 -20 9 -22 48 -3 45 -2 47 22 47 21 0 26 5 26
25 0 20 -5 25 -25 25 -21 0 -25 5 -25 30 0 27 -3 30 -33 30 -19 0 -37 -3 -40
-7z"/>
<path d="M830 1205 l0 -105 40 0 40 0 0 66 c0 64 1 66 30 77 23 9 30 17 30 39
0 30 -17 36 -51 18 -13 -7 -19 -7 -19 0 0 5 -16 10 -35 10 l-35 0 0 -105z"/>
<path d="M1022 1300 c-20 -9 -21 -12 -11 -32 6 -13 13 -24 14 -26 1 -1 16 3
33 9 22 7 36 7 51 -1 34 -18 24 -30 -23 -30 -58 0 -76 -8 -87 -37 -9 -25 2
-60 25 -75 18 -12 81 -9 94 4 9 9 12 9 12 0 0 -7 14 -12 35 -12 l35 0 0 80 c0
73 -3 83 -25 105 -20 21 -34 25 -77 24 -29 0 -63 -4 -76 -9z m104 -122 c4 -6
-1 -17 -11 -25 -24 -17 -34 -17 -42 3 -10 26 38 47 53 22z"/>
<path d="M1250 1205 l0 -105 35 0 35 0 0 56 c0 63 13 94 38 94 31 0 42 -22 42
-87 l0 -63 35 0 35 0 0 80 c0 73 -3 83 -25 105 -26 27 -72 33 -106 15 -13 -7
-19 -7 -19 0 0 5 -16 10 -35 10 l-35 0 0 -105z"/>
<path d="M1815 1298 c-27 -15 -35 -28 -35 -59 0 -33 15 -45 69 -58 23 -5 45
-12 48 -15 13 -12 -32 -19 -68 -9 -34 9 -38 8 -48 -13 -14 -32 10 -44 84 -44
46 0 60 4 80 25 45 44 24 87 -50 103 -21 4 -41 14 -43 21 -4 11 5 13 42 9 40
-5 48 -3 57 14 8 16 8 23 -2 29 -20 12 -110 10 -134 -3z"/>
<path d="M2143 1300 c-26 -11 -27 -14 -13 -40 9 -16 15 -17 39 -9 21 7 36 7
50 -1 33 -17 24 -30 -22 -30 -23 0 -53 -7 -65 -16 -30 -20 -30 -68 0 -88 27
-19 89 -21 106 -4 9 9 12 9 12 0 0 -7 15 -12 36 -12 l36 0 -4 81 c-3 74 -6 83
-31 105 -30 26 -99 32 -144 14z m97 -129 c0 -21 -22 -33 -45 -25 -21 8 -19 32
3 37 34 9 42 7 42 -12z"/>
<path d="M2360 1205 l0 -105 40 0 39 0 3 72 c3 63 6 73 22 76 30 6 46 -26 46
-90 l0 -58 35 0 35 0 0 64 c0 71 17 99 48 79 13 -7 18 -28 20 -77 l3 -66 34 0
35 0 0 79 c0 98 -20 131 -79 131 -20 0 -46 -6 -56 -14 -17 -12 -22 -12 -39 0
-24 17 -69 18 -97 4 -13 -7 -19 -7 -19 0 0 5 -16 10 -35 10 l-35 0 0 -105z"/>
<path d="M3180 1205 l0 -105 35 0 35 0 0 59 c0 64 15 91 51 91 14 0 19 7 19
30 0 25 -4 30 -23 30 -13 0 -28 -5 -35 -12 -9 -9 -12 -9 -12 0 0 7 -14 12 -35
12 l-35 0 0 -105z"/>
<path d="M3366 1297 c-15 -11 -16 -17 -7 -35 10 -18 15 -20 40 -11 21 7 36 7
50 -1 35 -18 24 -30 -27 -30 -55 0 -82 -20 -82 -62 0 -48 68 -76 121 -48 13 7
19 7 19 0 0 -5 16 -10 36 -10 l37 0 -6 82 c-5 73 -8 85 -32 105 -20 18 -38 23
-79 23 -29 0 -60 -6 -70 -13z m104 -121 c0 -20 -27 -39 -45 -32 -21 7 -19 33
3 39 32 9 42 7 42 -7z"/>
<path d="M3631 1296 c-68 -38 -66 -152 4 -184 57 -26 155 -4 155 34 0 20 -52
43 -58 26 -2 -6 -17 -12 -33 -12 -37 0 -57 36 -40 69 13 23 50 28 69 9 15 -15
62 5 62 27 0 37 -109 59 -159 31z"/>
<path d="M4109 1281 c-23 -23 -29 -38 -29 -71 0 -52 13 -76 50 -95 37 -19 110
-19 135 -1 19 14 19 15 1 34 -15 17 -22 19 -42 10 -18 -8 -31 -8 -49 0 -45 21
-28 32 50 32 l75 0 0 31 c0 20 -10 40 -29 60 -25 25 -37 29 -81 29 -44 0 -56
-4 -81 -29z m111 -36 c11 -13 7 -15 -30 -15 -37 0 -41 2 -30 15 7 8 20 15 30
15 10 0 23 -7 30 -15z"/>
</g>
</svg>
