<?xml version="1.0" standalone="no"?>
<!DOCTYPE svg PUBLIC "-//W3C//DTD SVG 20010904//EN"
 "http://www.w3.org/TR/2001/REC-SVG-20010904/DTD/svg10.dtd">
<svg version="1.0" xmlns="http://www.w3.org/2000/svg"
 width="500.000000pt" height="500.000000pt" viewBox="0 0 500.000000 500.000000"
 preserveAspectRatio="xMidYMid meet">
<metadata>
Created by potrace 1.14, written by Peter Selinger 2001-2017
</metadata>
<g transform="translate(0.000000,500.000000) scale(0.100000,-0.100000)"
fill="#000000" stroke="none">
<path d="M0 2500 l0 -2500 2500 0 2500 0 0 2500 0 2500 -2500 0 -2500 0 0
-2500z m3466 1270 c101 -50 161 -134 184 -259 44 -243 -164 -587 -439 -725
-36 -19 -142 -59 -236 -91 -192 -65 -221 -78 -322 -147 -72 -50 -72 -51 -55
-72 57 -72 281 -337 311 -368 19 -21 42 -38 51 -38 21 0 54 -35 46 -48 -3 -5
-37 -35 -76 -67 -69 -56 -71 -57 -90 -40 -11 10 -20 29 -20 41 0 16 -55 89
-162 218 -90 107 -165 195 -168 195 -3 0 -74 -83 -157 -183 -102 -122 -153
-191 -153 -207 0 -13 -8 -34 -18 -47 l-17 -22 -47 38 c-114 94 -110 90 -98
112 6 11 22 23 36 26 17 4 76 67 177 187 203 242 187 215 147 249 -54 45 -175
102 -300 142 -63 21 -124 41 -135 46 -11 4 -51 20 -89 36 -239 96 -443 347
-487 598 -40 231 96 425 309 443 274 22 591 -244 687 -576 8 -26 21 -93 30
-151 46 -294 56 -334 102 -423 l19 -39 36 79 c39 85 56 160 89 382 33 233 99
376 238 524 190 201 429 275 607 187z m-1726 -2305 l0 -145 -35 0 c-21 0 -35
5 -35 12 0 9 -3 9 -12 0 -7 -7 -29 -12 -51 -12 -58 0 -97 43 -97 105 0 39 5
52 30 77 28 28 36 30 80 26 l50 -5 0 43 c0 44 0 44 35 44 l35 0 0 -145z m330
0 l0 -145 -35 0 -35 0 0 145 0 145 35 0 35 0 0 -145z m1828 66 l3 -74 38 37
c33 32 44 37 77 34 l39 -3 -38 -41 c-20 -23 -37 -45 -37 -49 0 -3 15 -25 33
-48 53 -66 53 -67 5 -67 -37 1 -46 5 -68 35 -30 41 -44 40 -48 -3 -3 -30 -6
-32 -43 -32 l-39 0 0 138 c0 76 3 142 7 146 4 4 21 6 38 4 l30 -3 3 -74z
m-3136 43 c34 -18 35 -24 5 -53 -21 -19 -25 -20 -37 -6 -7 8 -28 15 -50 15
-47 0 -74 -28 -74 -77 0 -44 32 -73 80 -73 33 0 34 1 34 40 0 39 1 40 35 40
l35 0 0 -55 c0 -46 -3 -56 -22 -66 -70 -38 -161 -26 -208 28 -26 29 -30 42
-30 88 0 48 4 60 33 91 49 54 128 65 199 28z m2327 1 c35 -18 45 -50 26 -88
-13 -25 -12 -30 6 -48 10 -10 19 -28 19 -38 0 -62 -39 -81 -165 -81 l-95 0 0
135 0 135 90 0 c60 0 101 -5 119 -15z m1331 -25 c0 -25 4 -30 25 -30 20 0 25
-5 25 -25 0 -20 -5 -25 -26 -25 -24 0 -25 -2 -22 -47 2 -39 6 -48 22 -48 18 0
38 -32 29 -47 -8 -15 -81 -8 -102 10 -16 12 -24 32 -28 75 -4 38 -10 57 -19
57 -8 0 -14 11 -14 25 0 16 6 25 15 25 9 0 15 9 15 23 0 31 7 37 47 37 30 0
33 -3 33 -30z m-3520 -30 c0 -7 6 -7 19 0 34 18 51 12 51 -18 0 -22 -7 -30
-30 -39 -29 -11 -30 -13 -30 -77 l0 -66 -40 0 -40 0 0 105 0 105 35 0 c19 0
35 -5 35 -10z m275 -15 c22 -22 25 -32 25 -105 l0 -80 -35 0 c-21 0 -35 5 -35
12 0 9 -3 9 -12 0 -7 -7 -29 -12 -49 -12 -66 0 -99 70 -51 108 9 6 37 12 64
12 51 0 62 12 27 30 -15 8 -29 8 -51 1 -17 -6 -32 -10 -33 -9 -1 2 -8 13 -14
26 -10 20 -9 23 11 32 13 5 47 9 76 9 43 1 57 -3 77 -24z m145 15 c0 -7 6 -7
19 0 34 18 80 12 106 -15 22 -22 25 -32 25 -105 l0 -80 -35 0 -35 0 0 63 c0
65 -11 87 -42 87 -25 0 -38 -31 -38 -94 l0 -56 -35 0 -35 0 0 105 0 105 35 0
c19 0 35 -5 35 -10z m629 1 c10 -6 10 -13 2 -29 -9 -17 -17 -19 -57 -14 -37 4
-46 2 -42 -9 2 -7 22 -17 43 -21 74 -16 95 -59 50 -103 -20 -21 -34 -25 -80
-25 -74 0 -98 12 -84 44 10 21 14 22 48 13 36 -10 81 -3 68 9 -3 3 -25 10 -48
15 -54 13 -69 25 -69 58 0 31 8 44 35 59 24 13 114 15 134 3z m338 -15 c25
-22 28 -31 31 -105 l4 -81 -36 0 c-21 0 -36 5 -36 12 0 9 -3 9 -12 0 -17 -17
-79 -15 -106 4 -30 20 -30 68 0 88 12 9 42 16 65 16 45 0 53 9 28 30 -12 10
-24 11 -51 2 -30 -9 -36 -8 -44 8 -14 26 -13 29 13 40 45 18 114 12 144 -14z
m143 14 c0 -7 6 -7 19 0 28 14 73 13 97 -4 17 -12 22 -12 39 0 10 8 36 14 56
14 59 0 79 -33 79 -131 l0 -79 -35 0 -34 0 -3 66 c-2 49 -7 70 -20 77 -31 20
-48 -8 -48 -79 l0 -64 -35 0 -35 0 0 58 c0 64 -16 96 -46 90 -16 -3 -19 -13
-22 -76 l-3 -72 -39 0 -40 0 0 105 0 105 35 0 c19 0 35 -5 35 -10z m820 -2 c0
-9 3 -9 12 0 7 7 22 12 35 12 19 0 23 -5 23 -30 0 -23 -5 -30 -19 -30 -36 0
-51 -27 -51 -91 l0 -59 -35 0 -35 0 0 105 0 105 35 0 c21 0 35 -5 35 -12z
m265 -10 c22 -20 26 -33 32 -105 l6 -83 -37 0 c-20 0 -36 5 -36 10 0 7 -6 7
-19 0 -53 -28 -121 0 -121 48 0 42 27 62 82 62 51 0 62 12 27 30 -14 8 -29 8
-50 1 -25 -9 -30 -7 -40 11 -16 31 12 48 77 48 41 0 59 -5 79 -22z m245 7 c37
-19 38 -42 5 -57 -19 -9 -28 -9 -37 0 -19 19 -56 14 -69 -9 -17 -33 3 -69 40
-69 16 0 31 6 33 12 6 17 58 -6 58 -26 0 -38 -98 -60 -155 -34 -70 32 -72 146
-4 184 32 18 94 17 129 -1z m511 -14 c19 -20 29 -40 29 -60 l0 -31 -75 0 c-78
0 -95 -11 -50 -32 18 -8 31 -8 49 0 20 9 27 7 42 -10 18 -19 18 -20 -1 -34
-42 -31 -151 -9 -175 35 -15 29 -12 94 6 119 20 30 48 41 102 41 35 1 49 -5
73 -28z"/>
<path d="M3260 3739 c0 -5 5 -7 10 -4 6 3 10 8 10 11 0 2 -4 4 -10 4 -5 0 -10
-5 -10 -11z"/>
<path d="M3300 3735 c-13 -16 -11 -21 24 -51 l38 -33 30 35 c36 41 31 50 -33
59 -36 5 -48 3 -59 -10z"/>
<path d="M3163 3723 c-24 -8 -43 -18 -43 -23 0 -10 58 -60 68 -59 4 0 20 16
36 35 23 28 26 37 16 49 -15 18 -23 18 -77 -2z"/>
<path d="M1603 3719 c-18 -5 -33 -14 -33 -19 0 -11 49 -70 58 -70 4 1 22 14
41 30 34 29 34 30 16 50 -20 22 -33 23 -82 9z"/>
<path d="M1708 3718 c9 -9 15 -9 24 0 9 9 7 12 -12 12 -19 0 -21 -3 -12 -12z"/>
<path d="M1756 3702 c-17 -19 -16 -21 14 -56 l32 -36 39 32 c41 33 42 44 3 59
-54 20 -70 20 -88 1z"/>
<path d="M3412 3672 l-30 -38 38 -32 38 -32 31 39 c17 21 31 44 31 49 0 12
-53 52 -68 52 -6 0 -24 -17 -40 -38z"/>
<path d="M1502 3665 c-18 -15 -32 -32 -32 -38 1 -7 14 -27 30 -46 l29 -34 36
27 c19 15 35 31 35 37 0 5 -15 25 -33 45 l-33 36 -32 -27z"/>
<path d="M3235 3654 l-27 -36 33 -28 c19 -16 37 -29 41 -30 4 0 19 16 34 35
l27 36 -28 29 c-16 17 -34 30 -41 30 -6 0 -24 -16 -39 -36z"/>
<path d="M3062 3641 l-31 -39 39 -31 39 -31 30 37 c33 40 31 47 -19 83 l-27
19 -31 -38z"/>
<path d="M1678 3637 l-37 -32 33 -39 33 -39 37 34 37 34 -33 37 -33 38 -37
-33z"/>
<path d="M1947 3629 c18 -19 36 -28 43 -24 7 5 0 15 -24 31 -48 33 -57 30 -19
-7z"/>
<path d="M3017 3646 c-11 -8 -14 -17 -8 -20 5 -4 15 3 21 14 13 23 11 24 -13
6z"/>
<path d="M1851 3620 l-33 -28 27 -36 c15 -20 31 -36 36 -36 5 0 23 13 41 29
l32 29 -27 36 c-16 20 -31 36 -35 36 -4 -1 -22 -14 -41 -30z"/>
<path d="M3505 3593 l-29 -36 34 -28 c40 -34 42 -34 63 -11 14 16 14 21 -5 65
-11 26 -23 47 -27 46 -3 0 -19 -16 -36 -36z"/>
<path d="M2935 3580 c-23 -24 -26 -33 -16 -43 10 -10 18 -5 42 21 50 56 26 76
-26 22z"/>
<path d="M3331 3576 l-32 -33 37 -33 38 -33 34 38 35 38 -34 28 c-19 16 -36
29 -40 29 -3 0 -20 -15 -38 -34z"/>
<path d="M1424 3554 c-13 -34 -15 -51 -7 -63 14 -22 24 -20 62 11 l32 28 -28
35 c-15 19 -31 35 -35 35 -3 0 -14 -21 -24 -46z"/>
<path d="M3159 3563 l-34 -35 38 -33 39 -34 29 33 c16 19 29 38 29 42 0 5 -15
21 -34 36 l-33 27 -34 -36z"/>
<path d="M1585 3558 l-36 -33 33 -37 33 -38 37 33 37 32 -34 38 -34 39 -36
-34z"/>
<path d="M1996 3582 c-2 -4 10 -24 27 -45 29 -34 34 -35 51 -22 19 15 19 16
-9 45 -28 29 -58 39 -69 22z"/>
<path d="M2987 3552 c-15 -15 -27 -33 -27 -39 0 -12 57 -64 68 -62 4 0 20 16
36 35 l29 35 -34 29 c-19 16 -37 29 -40 30 -3 0 -17 -13 -32 -28z"/>
<path d="M1761 3542 c-37 -30 -35 -47 8 -86 20 -18 21 -18 53 9 18 15 33 31
33 35 0 7 -51 70 -57 70 -2 0 -19 -13 -37 -28z"/>
<path d="M1934 3526 l-37 -32 32 -37 33 -37 34 28 c19 15 34 31 34 36 0 4 -13
23 -29 42 l-29 33 -38 -33z"/>
<path d="M2855 3495 c-22 -29 -24 -39 -15 -51 11 -12 18 -9 45 23 24 28 30 41
23 51 -16 18 -23 15 -53 -23z"/>
<path d="M3424 3495 l-27 -36 34 -29 c19 -16 37 -29 40 -30 4 0 19 16 34 36
l27 36 -28 29 c-15 16 -33 29 -40 29 -7 0 -25 -16 -40 -35z"/>
<path d="M3252 3483 l-30 -39 38 -32 38 -32 31 39 30 38 -22 20 c-53 47 -53
46 -85 6z"/>
<path d="M1488 3478 l-37 -33 33 -37 33 -38 38 33 39 33 -35 37 -34 37 -37
-32z"/>
<path d="M2087 3492 c-16 -17 -15 -20 18 -52 32 -31 36 -33 51 -18 15 15 14
19 -12 52 -33 42 -35 42 -57 18z"/>
<path d="M3075 3464 l-27 -36 33 -28 c19 -16 37 -29 41 -30 4 0 19 16 35 36
l27 36 -32 29 c-18 16 -36 29 -41 29 -5 0 -21 -16 -36 -36z"/>
<path d="M1661 3460 l-33 -28 28 -36 c16 -20 32 -36 36 -36 10 0 68 51 68 60
0 11 -50 70 -58 70 -4 -1 -22 -14 -41 -30z"/>
<path d="M2903 3452 l-31 -38 38 -32 39 -32 30 37 31 37 -23 24 c-41 44 -52
45 -84 4z"/>
<path d="M3576 3481 c-3 -5 1 -11 9 -15 8 -3 15 -1 15 4 0 13 -18 22 -24 11z"/>
<path d="M1838 3447 l-37 -32 32 -38 33 -38 38 33 38 33 -34 37 -33 38 -37
-33z"/>
<path d="M2011 3430 l-33 -28 27 -36 c15 -20 30 -36 34 -36 4 0 22 13 41 29
l34 28 -27 37 c-16 20 -31 36 -35 36 -4 -1 -22 -14 -41 -30z"/>
<path d="M3523 3420 l-33 -38 36 -32 c43 -37 60 -29 66 31 3 30 -1 44 -17 59
-20 19 -20 18 -52 -20z"/>
<path d="M3346 3404 c-28 -34 -28 -35 -10 -55 37 -41 53 -43 85 -13 16 15 29
33 29 38 0 10 -64 67 -72 65 -2 0 -16 -16 -32 -35z"/>
<path d="M1411 3416 c-8 -9 -10 -29 -6 -53 13 -77 12 -76 55 -42 l39 31 -31
39 c-35 43 -40 45 -57 25z"/>
<path d="M2785 3390 c-29 -46 -26 -63 6 -34 31 28 43 54 31 66 -7 7 -19 -4
-37 -32z"/>
<path d="M3177 3392 c-35 -36 -34 -46 7 -77 l35 -27 30 34 c17 18 31 36 31 39
0 6 -65 59 -72 59 -3 0 -16 -13 -31 -28z"/>
<path d="M1571 3384 c-17 -14 -31 -30 -31 -34 0 -11 50 -70 58 -70 4 1 22 14
41 30 l33 28 -28 36 c-16 20 -32 36 -36 36 -3 0 -20 -12 -37 -26z"/>
<path d="M2162 3398 c-8 -10 -3 -23 23 -53 28 -34 34 -37 40 -23 7 19 -22 79
-41 85 -6 2 -16 -2 -22 -9z"/>
<path d="M2999 3373 l-32 -37 38 -33 38 -33 28 32 c16 18 28 38 29 43 0 6 -15
22 -34 37 l-34 28 -33 -37z"/>
<path d="M1745 3368 l-38 -34 33 -37 32 -37 33 27 c19 16 34 33 34 38 0 6 -13
25 -28 43 l-29 34 -37 -34z"/>
<path d="M2826 3359 c-14 -17 -26 -34 -26 -39 0 -5 16 -21 35 -36 l36 -27 29
34 c16 19 29 37 30 40 0 7 -65 59 -73 59 -3 0 -17 -14 -31 -31z"/>
<path d="M1921 3354 c-38 -32 -39 -43 -2 -78 l30 -29 33 28 c18 15 33 31 33
35 0 8 -52 70 -59 70 -2 0 -18 -12 -35 -26z"/>
<path d="M2095 3339 c-19 -17 -35 -34 -35 -38 0 -3 14 -21 31 -39 l30 -33 34
28 c18 15 34 32 34 37 1 4 -12 24 -29 42 l-29 34 -36 -31z"/>
<path d="M3441 3323 l-31 -37 33 -28 c17 -15 37 -27 42 -28 6 0 22 15 37 34
l28 34 -36 31 c-19 17 -36 31 -39 31 -2 0 -17 -17 -34 -37z"/>
<path d="M3265 3306 l-27 -35 34 -30 c18 -17 36 -31 39 -31 4 0 19 16 35 37
l27 36 -31 29 c-18 15 -37 28 -42 28 -5 0 -21 -16 -35 -34z"/>
<path d="M1471 3300 l-35 -30 30 -32 c16 -18 30 -35 31 -37 5 -8 73 51 73 63
0 11 -51 67 -61 66 -2 -1 -20 -14 -38 -30z"/>
<path d="M3096 3296 c-14 -19 -26 -38 -25 -43 0 -4 15 -20 34 -36 l33 -27 31
39 31 39 -35 31 c-20 17 -37 31 -39 31 -2 0 -15 -15 -30 -34z"/>
<path d="M1653 3292 c-18 -16 -33 -33 -33 -38 1 -5 13 -24 29 -42 l28 -32 37
32 38 33 -34 37 -33 38 -32 -28z"/>
<path d="M2740 3309 c0 -5 5 -7 10 -4 6 3 10 8 10 11 0 2 -4 4 -10 4 -5 0 -10
-5 -10 -11z"/>
<path d="M2917 3275 l-28 -35 33 -30 c18 -16 36 -30 40 -30 4 0 19 16 34 35
l27 36 -28 29 c-16 17 -34 30 -39 30 -6 0 -24 -16 -39 -35z"/>
<path d="M1820 3270 l-35 -28 25 -29 c14 -15 28 -32 32 -37 8 -10 78 39 78 54
0 11 -50 70 -58 70 -4 0 -23 -14 -42 -30z"/>
<path d="M2237 3293 c-4 -6 2 -18 13 -28 23 -21 27 -8 7 20 -8 11 -16 14 -20
8z"/>
<path d="M2746 3263 l-28 -35 33 -35 34 -34 33 37 32 38 -22 24 c-41 43 -52
44 -82 5z"/>
<path d="M1998 3257 l-37 -32 32 -37 32 -38 38 33 37 32 -32 37 -33 37 -37
-32z"/>
<path d="M2171 3241 l-34 -28 28 -37 c15 -20 30 -36 34 -36 4 0 22 13 41 28
l34 29 -28 36 c-16 20 -31 37 -35 37 -3 0 -21 -13 -40 -29z"/>
<path d="M3531 3238 c-16 -21 -20 -33 -13 -40 7 -7 15 -1 27 22 22 43 15 53
-14 18z"/>
<path d="M3357 3225 l-27 -33 37 -31 38 -32 34 37 34 37 -34 28 c-19 16 -38
28 -44 28 -5 0 -22 -15 -38 -34z"/>
<path d="M3185 3213 l-29 -36 38 -32 39 -32 28 32 c16 18 29 37 29 43 0 8 -64
63 -72 61 -2 0 -16 -16 -33 -36z"/>
<path d="M1556 3209 l-37 -34 33 -37 33 -37 36 32 37 32 -33 39 -32 39 -37
-34z"/>
<path d="M3017 3202 c-35 -36 -34 -46 7 -77 l35 -27 30 34 c17 18 31 36 31 39
0 6 -65 59 -72 59 -3 0 -16 -13 -31 -28z"/>
<path d="M1726 3191 c-30 -32 -28 -48 13 -85 21 -19 22 -19 54 10 17 16 33 30
35 31 8 3 -53 73 -64 73 -5 0 -23 -13 -38 -29z"/>
<path d="M2841 3185 c-17 -20 -31 -37 -31 -40 0 -2 17 -17 38 -33 l38 -30 32
38 32 38 -39 31 -39 31 -31 -35z"/>
<path d="M1457 3191 c3 -12 9 -21 14 -21 14 0 11 16 -5 29 -12 10 -13 8 -9 -8z"/>
<path d="M1905 3178 l-38 -34 33 -37 32 -37 33 27 c19 16 34 33 34 38 0 6 -13
25 -28 43 l-29 34 -37 -34z"/>
<path d="M2696 3169 c-9 -48 -7 -87 5 -95 11 -6 64 51 64 69 0 5 -14 20 -31
33 l-31 25 -7 -32z"/>
<path d="M2073 3160 l-33 -30 31 -35 c17 -19 34 -35 38 -35 3 0 21 14 39 31
l33 30 -28 34 c-15 18 -32 34 -38 34 -5 0 -25 -13 -42 -29z"/>
<path d="M2250 3146 l-33 -35 30 -34 c26 -30 32 -32 48 -21 15 11 16 22 10 68
-3 31 -10 56 -14 56 -4 0 -22 -16 -41 -34z"/>
<path d="M3454 3145 c-26 -34 -26 -36 -8 -49 17 -13 21 -10 46 27 15 22 25 44
22 49 -11 17 -34 7 -60 -27z"/>
<path d="M3283 3133 l-29 -38 37 -33 37 -32 31 39 31 39 -35 31 c-20 17 -37
31 -40 31 -2 0 -16 -17 -32 -37z"/>
<path d="M1487 3153 c-3 -5 6 -28 19 -52 21 -34 28 -40 40 -30 9 7 11 17 5 28
-15 26 -58 63 -64 54z"/>
<path d="M3106 3115 l-27 -35 33 -30 c18 -16 36 -30 40 -30 4 0 19 16 34 35
l27 36 -28 29 c-16 17 -34 30 -41 30 -6 0 -24 -16 -38 -35z"/>
<path d="M1630 3110 l-35 -28 25 -29 c14 -15 28 -32 32 -37 8 -10 78 39 78 54
0 11 -50 70 -58 70 -4 0 -23 -14 -42 -30z"/>
<path d="M2935 3104 l-27 -36 28 -29 c36 -37 47 -37 79 5 l27 35 -34 30 c-18
17 -36 31 -39 31 -4 0 -19 -16 -34 -36z"/>
<path d="M1808 3098 l-37 -33 32 -37 32 -38 38 33 38 32 -33 38 -33 37 -37
-32z"/>
<path d="M2758 3086 l-28 -35 38 -31 37 -31 32 36 32 37 -33 29 c-19 16 -38
29 -42 29 -5 0 -21 -15 -36 -34z"/>
<path d="M1981 3081 l-34 -28 28 -37 c15 -20 30 -36 34 -36 3 0 22 13 41 29
l34 29 -27 36 c-16 20 -31 36 -35 36 -4 0 -22 -13 -41 -29z"/>
<path d="M2157 3068 l-37 -33 32 -37 33 -37 37 32 38 32 -33 38 -32 37 -38
-32z"/>
<path d="M3376 3054 c-27 -33 -28 -36 -13 -52 16 -15 19 -14 52 18 33 32 34
35 18 52 -21 23 -23 23 -57 -18z"/>
<path d="M3201 3036 l-32 -33 39 -32 40 -31 32 37 33 37 -34 28 c-18 15 -36
28 -39 28 -3 0 -21 -15 -39 -34z"/>
<path d="M1554 3049 c-10 -17 58 -80 75 -70 11 7 8 16 -15 45 -30 37 -48 44
-60 25z"/>
<path d="M3029 3024 l-34 -36 35 -29 c19 -16 37 -29 40 -29 3 0 21 15 39 34
l32 33 -39 31 -39 31 -34 -35z"/>
<path d="M1712 3017 l-32 -33 32 -38 33 -37 34 34 33 35 -28 36 c-16 20 -31
36 -35 36 -3 0 -20 -15 -37 -33z"/>
<path d="M2857 3012 c-15 -15 -27 -32 -27 -38 0 -5 16 -22 35 -37 l35 -28 30
33 c16 18 30 36 30 40 0 7 -63 58 -72 58 -2 0 -16 -13 -31 -28z"/>
<path d="M1883 3000 l-33 -30 31 -35 c17 -19 34 -35 38 -35 3 0 21 14 39 31
l33 30 -28 34 c-15 18 -32 34 -38 34 -5 0 -25 -13 -42 -29z"/>
<path d="M2700 3016 c-8 -11 -8 -25 -1 -53 19 -66 25 -70 59 -32 l31 34 -22
23 c-33 36 -53 44 -67 28z"/>
<path d="M2063 2990 c-18 -16 -33 -33 -33 -38 0 -5 13 -21 29 -36 32 -30 48
-28 85 13 18 20 18 21 -10 55 -16 19 -31 35 -34 35 -3 0 -20 -13 -37 -29z"/>
<path d="M2230 2970 l-35 -29 35 -36 34 -35 18 32 c20 39 23 69 6 86 -16 16
-18 16 -58 -18z"/>
<path d="M3296 2958 c-25 -32 -26 -48 -2 -48 19 0 69 57 62 69 -12 19 -34 12
-60 -21z"/>
<path d="M3124 2945 l-27 -36 28 -29 c16 -17 34 -30 41 -30 6 0 24 16 38 35
l27 35 -33 30 c-18 16 -36 30 -40 30 -4 0 -19 -16 -34 -35z"/>
<path d="M1645 2961 c-9 -16 47 -75 66 -69 8 3 1 17 -23 43 -25 27 -37 35 -43
26z"/>
<path d="M2951 2931 l-30 -38 22 -20 c53 -47 53 -46 85 -6 l30 39 -38 32 -38
32 -31 -39z"/>
<path d="M1793 2924 c-18 -14 -33 -28 -33 -32 1 -4 14 -22 30 -41 l28 -33 36
27 c20 15 36 31 36 35 0 11 -50 70 -58 70 -4 0 -22 -12 -39 -26z"/>
<path d="M2772 2911 l-32 -39 36 -32 c39 -34 47 -32 86 22 l20 30 -33 28 c-19
16 -37 29 -40 30 -3 0 -20 -18 -37 -39z"/>
<path d="M1968 2909 l-38 -31 28 -34 c15 -19 32 -34 37 -34 6 1 25 13 43 29
l32 28 -32 36 -33 37 -37 -31z"/>
<path d="M2138 2892 l-31 -29 27 -36 c16 -21 33 -37 39 -37 5 0 25 12 44 26
l34 25 -32 40 c-17 21 -35 39 -40 39 -5 0 -23 -13 -41 -28z"/>
<path d="M3226 2873 l-19 -26 31 18 c17 10 29 22 26 27 -9 13 -18 9 -38 -19z"/>
<path d="M2650 2867 c0 -41 -40 -167 -75 -237 -19 -38 -35 -74 -35 -80 0 -6
30 12 68 39 71 51 136 86 215 116 l49 18 -48 18 c-48 19 -139 98 -150 131 -8
26 -24 22 -24 -5z"/>
<path d="M3048 2854 c-34 -39 -35 -52 -4 -60 26 -6 92 11 101 26 3 4 -12 21
-32 37 l-38 30 -27 -33z"/>
<path d="M2330 2868 c0 -29 -83 -110 -142 -138 l-58 -27 73 -27 c39 -15 108
-51 152 -81 44 -29 84 -50 88 -46 5 5 -6 37 -23 71 -18 35 -43 106 -56 159
-24 93 -34 120 -34 89z"/>
<path d="M1730 2866 c0 -2 7 -7 16 -10 8 -3 12 -2 9 4 -6 10 -25 14 -25 6z"/>
<path d="M2870 2834 c-17 -20 -29 -38 -27 -40 3 -3 27 -8 56 -13 42 -7 53 -5
66 9 14 16 13 20 -20 49 -20 17 -37 31 -39 31 -2 0 -18 -16 -36 -36z"/>
<path d="M1875 2830 l-28 -29 29 -11 c48 -19 81 -23 88 -11 6 10 -42 81 -55
81 -3 0 -18 -13 -34 -30z"/>
<path d="M2049 2817 c-20 -18 -35 -38 -32 -44 5 -15 91 -17 113 -3 12 7 11 13
-10 37 -14 15 -27 31 -30 35 -3 3 -21 -8 -41 -25z"/>
<path d="M1592 1458 c-7 -7 -12 -21 -12 -33 0 -12 5 -26 12 -33 7 -7 21 -12
33 -12 12 0 26 5 33 12 7 7 12 21 12 33 0 12 -5 26 -12 33 -7 7 -21 12 -33 12
-12 0 -26 -5 -33 -12z"/>
<path d="M2960 1511 c0 -29 3 -31 34 -31 37 0 66 24 49 41 -5 5 -26 12 -46 16
-36 5 -37 5 -37 -26z"/>
<path d="M2960 1405 c0 -25 2 -26 48 -23 39 3 47 6 47 23 0 17 -8 20 -47 23
-46 3 -48 2 -48 -23z"/>
<path d="M1081 1401 c-14 -9 -9 -41 7 -41 17 0 45 27 38 38 -9 14 -26 15 -45
3z"/>
<path d="M2198 1403 c-22 -5 -24 -29 -3 -37 23 -8 45 4 45 25 0 19 -8 21 -42
12z"/>
<path d="M3428 1403 c-22 -6 -24 -32 -3 -39 18 -7 45 12 45 32 0 14 -10 16
-42 7z"/>
<path d="M4162 1468 c-21 -21 -13 -28 28 -28 22 0 40 4 40 8 0 14 -23 32 -40
32 -9 0 -21 -5 -28 -12z"/>
</g>
</svg>
